<svg width="459" height="370" viewBox="0 0 459 370" xmlns="http://www.w3.org/2000/svg" xmlns:xlink="http://www.w3.org/1999/xlink"><title>Group 6</title><defs><linearGradient x1="25.773%" y1="9.303%" x2="73.549%" y2="98.705%" id="a"><stop stop-color="#064588" offset="0%"/><stop stop-color="#022150" offset="100%"/></linearGradient><rect id="c" width="395" height="269" rx="15"/><filter x="-9%" y="-12.8%" width="119%" height="127.9%" filterUnits="objectBoundingBox" id="b"><feOffset dx="2" dy="3" in="SourceAlpha" result="shadowOffsetOuter1"/><feGaussianBlur stdDeviation="12" in="shadowOffsetOuter1" result="shadowBlurOuter1"/><feColorMatrix values="0 0 0 0 0 0 0 0 0 0 0 0 0 0 0 0 0 0 0.5 0" in="shadowBlurOuter1"/></filter><path d="M0 0h178c5.523 0 10 4.477 10 10v228c0 5.523-4.477 10-10 10H0V0z" id="d"/><path id="f" d="M0 0h63.056v115.268H0z"/><filter x="-9.5%" y="-4.3%" width="122.2%" height="112.1%" filterUnits="objectBoundingBox" id="g"><feOffset dx="1" dy="2" in="SourceAlpha" result="shadowOffsetOuter1"/><feGaussianBlur stdDeviation="2" in="shadowOffsetOuter1" result="shadowBlurOuter1"/><feComposite in="shadowBlurOuter1" in2="SourceAlpha" operator="out" result="shadowBlurOuter1"/><feColorMatrix values="0 0 0 0 0.692920918 0 0 0 0 0.692920918 0 0 0 0 0.692920918 0 0 0 0.5 0" in="shadowBlurOuter1"/></filter><path id="i" d="M0 0h37.83v115.268H0z"/></defs><g fill="none" fill-rule="evenodd"><path d="M27.734 234.193C7.534 194.508-49.344 9.595 118.482.988c167.825-8.607 374.672 89.054 303.025 285.844-71.647 196.79-373.573-12.954-393.773-52.639z" fill="url(#a)" transform="translate(22)"/><g transform="translate(22 50)"><use fill="#000" filter="url(#b)" xlink:href="#c"/><use fill="#012B65" xlink:href="#c"/></g><g transform="translate(31 62)"><path d="M10 0h178v248H10c-5.523 0-10-4.477-10-10V10C0 4.477 4.477 0 10 0z" fill="#032758"/><path fill="#001A3E" d="M38.534 0h46.708v12.808H38.534z"/><rect fill="#002559" x="47.876" y="4.657" width="28.025" height="3.493" rx="1.746"/><path fill="#001A3E" d="M87.578 0h46.708v12.808H87.578zM136.621 0h46.708v12.808h-46.708zM10 0h26.199v248H10c-5.523 0-10-4.477-10-10V10C0 4.477 4.477 0 10 0z"/><rect fill="#D8D8D8" opacity=".5" x="7.006" y="37.258" width="23.354" height="4.657" rx="2.329"/><rect fill="#D8D8D8" opacity=".5" x="7.006" y="50.066" width="18.683" height="4.657" rx="2.329"/><rect fill="#D8D8D8" opacity=".5" x="7.006" y="74.516" width="18.683" height="4.657" rx="2.329"/><rect fill="#D8D8D8" opacity=".5" x="7.006" y="62.873" width="22.186" height="4.657" rx="2.329"/><path fill="#002559" d="M1.168 18.629h35.031v10.479H1.168z"/><rect fill="#002559" x="96.919" y="4.657" width="22.186" height="3.493" rx="1.746"/><rect fill="#002559" x="143.627" y="4.657" width="31.528" height="3.493" rx="1.746"/><g transform="translate(45.54 25.615)"><rect fill="#7ED321" width="65.391" height="6.986" rx="3.493"/><rect fill="#4277FF" y="14.465" width="36.199" height="6" rx="3"/><rect fill="#F5A623" x="42.037" y="14.465" width="75.901" height="6" rx="3"/><rect fill="#4277FF" y="42.408" width="36.199" height="6" rx="3"/><rect fill="#F5A623" x="42.037" y="42.408" width="49.043" height="6" rx="3"/><rect fill="#4277FF" y="28.437" width="46.708" height="6" rx="3"/><rect fill="#F5A623" x="52.547" y="28.437" width="65.391" height="6" rx="3"/></g><g transform="translate(45.54 183.962)"><rect fill="#7ED321" width="85.242" height="6.986" rx="3.493"/><rect fill="#F5A623" y="14.465" width="52.547" height="6" rx="3"/><rect fill="#4277FF" x="42.037" y="42.408" width="36.199" height="6" rx="3"/><rect fill="#B8E986" x="85.242" y="42.408" width="36.199" height="6" rx="3"/><rect fill="#F5A623" y="42.408" width="36.199" height="6" rx="3"/><rect fill="#4277FF" x="58.385" y="14.465" width="46.708" height="6" rx="3"/><rect fill="#F5A623" y="28.437" width="65.391" height="6" rx="3"/></g><g transform="translate(45.54 97.803)"><rect fill="#7ED321" width="36.199" height="6.986" rx="3.493"/><rect fill="#F5A623" y="14.465" width="52.547" height="6" rx="3"/><rect fill="#F5A623" y="56.38" width="60.72" height="6" rx="3"/><rect fill="#4277FF" x="42.037" y="42.408" width="36.199" height="6" rx="3"/><rect fill="#FF623A" x="85.242" y="42.408" width="36.199" height="6" rx="3"/><rect fill="#F5A623" y="42.408" width="36.199" height="6" rx="3"/><rect fill="#4277FF" y="28.437" width="46.708" height="6" rx="3"/><rect fill="#B8E986" x="52.547" y="28.437" width="65.391" height="6" rx="3"/></g></g><g transform="translate(220 60)"><mask id="e" fill="#fff"><use xlink:href="#d"/></mask><use fill="#FFF" xlink:href="#d"/><g mask="url(#e)"><g transform="translate(72.398 80.338)"><mask id="h" fill="#fff"><use xlink:href="#f"/></mask><use fill="#000" filter="url(#g)" xlink:href="#f"/><path stroke="#032758" stroke-linejoin="square" fill="#FFF" d="M.5.5h62.056v114.268H.5z"/><g transform="translate(7.006 83.831)" mask="url(#h)"><rect fill="#4277FF" width="49.043" height="9.315" rx="2"/><rect fill="#FFF" opacity=".2" x="11.677" y="3.493" width="26.857" height="2.329" rx="1.164"/><rect fill="#E4EBF3" x="10.509" y="15.136" width="28.025" height="2.329" rx="1.164"/></g><rect stroke="#E4EBF3" fill="#FFF" mask="url(#h)" x="7.506" y="51.73" width="48.043" height="9.479" rx="2"/><rect stroke="#E4EBF3" fill="#FFF" mask="url(#h)" x="7.506" y="68.031" width="48.043" height="9.479" rx="2"/><path fill="#E4EBF3" mask="url(#h)" d="M1.168 1.164h60.72v44.244H1.168z"/><path d="M28.682 19.138c.34.34.51.752.51 1.238 0 .485-.17.897-.51 1.237-.34.34-.754.51-1.241.51-.487 0-.9-.17-1.24-.51-.341-.34-.512-.752-.512-1.237 0-.486.17-.898.511-1.238.34-.34.754-.509 1.241-.509.487 0 .9.17 1.24.51zm9.852 4.73v4.076H25.69v-1.747l2.92-2.91 1.46 1.455 4.67-4.657 3.795 3.784zm.876-6.403H24.814a.28.28 0 0 0-.206.086.28.28 0 0 0-.086.205v11.06a.28.28 0 0 0 .086.206.28.28 0 0 0 .206.086H39.41a.28.28 0 0 0 .205-.086.28.28 0 0 0 .087-.205V17.756a.28.28 0 0 0-.087-.205.28.28 0 0 0-.205-.086zm1.46.29v11.062c0 .4-.143.743-.43 1.028-.285.285-.629.427-1.03.427H24.814c-.402 0-.745-.142-1.031-.427a1.4 1.4 0 0 1-.429-1.028V17.756c0-.4.143-.743.429-1.028.286-.285.63-.428 1.03-.428H39.41c.401 0 .745.143 1.03.428a1.4 1.4 0 0 1 .43 1.028z" fill="#FFF" mask="url(#h)"/><g mask="url(#h)" fill="#FFF"><g transform="translate(51.379 4.657)"><rect width="8.174" height="1.164" rx=".582"/><rect y="2.329" width="8.174" height="1.164" rx=".582"/></g></g></g><g stroke="#8294AC" fill="#FFF"><path d="M71.73 137.89h2.503v2.493H71.73zM103.258 193.777h2.503v2.493h-2.503zM133.618 193.777h2.503v2.493h-2.503zM71.73 193.777h2.503v2.493H71.73zM133.618 137.89h2.503v2.493h-2.503zM102.09 79.674h2.503v2.493h-2.503zM133.618 79.674h2.503v2.493h-2.503zM71.73 79.674h2.503v2.493H71.73z"/></g></g><g transform="translate(149.466 80.338)" mask="url(#e)"><mask id="j" fill="#fff"><use xlink:href="#i"/></mask><use fill="#FFF" xlink:href="#i"/><g mask="url(#j)"><path d="M8.67 16.3h29v50.066h-29a4 4 0 0 1-4-4V20.3a4 4 0 0 1 4-4z" fill="#E4EBF3"/><path d="M5.17 56.387v5.98a3.5 3.5 0 0 0 3.5 3.5h28.5v-9.48h-32z" stroke="#E4EBF3" fill="#FFF"/><path d="M22.843 35.439c.34.34.511.752.511 1.237 0 .485-.17.898-.51 1.237-.341.34-.755.51-1.242.51-.486 0-.9-.17-1.24-.51-.34-.34-.511-.752-.511-1.237 0-.485.17-.897.51-1.237.341-.34.755-.51 1.241-.51.487 0 .9.17 1.241.51zm9.853 4.73v4.075H19.85v-1.746l2.92-2.911 1.459 1.455 4.67-4.657 3.796 3.784zm.875-6.404H18.975a.28.28 0 0 0-.205.087.28.28 0 0 0-.087.204v11.061a.28.28 0 0 0 .087.205.28.28 0 0 0 .205.086h14.596a.28.28 0 0 0 .206-.086.28.28 0 0 0 .086-.205v-11.06a.28.28 0 0 0-.086-.205.28.28 0 0 0-.206-.087zm1.46.291v11.061c0 .4-.143.743-.429 1.028-.286.285-.63.428-1.03.428H18.974c-.401 0-.745-.143-1.03-.428a1.4 1.4 0 0 1-.43-1.028v-11.06c0-.4.143-.744.43-1.029.285-.285.629-.427 1.03-.427h14.596c.402 0 .745.142 1.031.427a1.4 1.4 0 0 1 .43 1.028z" fill="#FFF"/></g><g mask="url(#j)"><path d="M8.67 69.86h29v48.9h-29a4 4 0 0 1-4-4v-40.9a4 4 0 0 1 4-4z" fill="#E4EBF3"/><path d="M5.17 108.782v5.979a3.5 3.5 0 0 0 3.5 3.5h28.5v-9.48h-32z" stroke="#E4EBF3" fill="#FFF"/><path d="M22.843 87.833c.34.34.511.752.511 1.237 0 .486-.17.898-.51 1.238-.341.34-.755.509-1.242.509-.486 0-.9-.17-1.24-.51-.34-.34-.511-.751-.511-1.237 0-.485.17-.897.51-1.237.341-.34.755-.51 1.241-.51.487 0 .9.17 1.241.51zm9.853 4.73v4.075H19.85v-1.746l2.92-2.91 1.459 1.455 4.67-4.658 3.796 3.784zm.875-6.403H18.975a.28.28 0 0 0-.205.086.28.28 0 0 0-.087.205v11.06a.28.28 0 0 0 .087.205.28.28 0 0 0 .205.087h14.596a.28.28 0 0 0 .206-.087.28.28 0 0 0 .086-.204V86.45a.28.28 0 0 0-.086-.205.28.28 0 0 0-.206-.086zm1.46.29v11.062c0 .4-.143.743-.429 1.028-.286.285-.63.427-1.03.427H18.974c-.401 0-.745-.142-1.03-.427a1.4 1.4 0 0 1-.43-1.028V86.45c0-.4.143-.743.43-1.028.285-.285.629-.428 1.03-.428h14.596c.402 0 .745.143 1.031.428a1.4 1.4 0 0 1 .43 1.028z" fill="#FFF"/></g><path fill="#E4EBF3" mask="url(#j)" d="M1.168 1.164h36.83v10.479H1.168z"/></g><g transform="translate(-1.168 26.78)" mask="url(#e)"><path fill="#E4EBF3" d="M1.168 0h53.714v221.221H1.168z"/><path fill="#F1F8FF" d="M1.168 1.164h53.714v11.643H1.168z"/><path fill="#4277FF" d="M0 26.779h54.882v11.643H0z"/><rect fill="#FFF" x="14.012" y="31.437" width="35.031" height="2.329" rx="1.164"/><rect fill="#AAB9C8" x="12.845" y="18.629" width="30.36" height="2.329" rx="1.164"/><rect fill="#AAB9C8" x="14.012" y="44.244" width="26.857" height="2.329" rx="1.164"/><rect fill="#AAB9C8" x="14.012" y="53.559" width="32.696" height="2.329" rx="1.164"/><rect fill="#AAB9C8" x="5.839" y="5.822" width="37.366" height="2.329" rx="1.164"/></g><g mask="url(#e)"><path d="M0 0h178c5.523 0 10 4.477 10 10v16.78H0V0z" fill="#D9E2EB"/><rect stroke="#AAB9C8" fill="#FFF" x="6.339" y="7.486" width="11.845" height="11.808" rx="3"/><rect stroke="#AAB9C8" fill="#3C6FEE" opacity=".396" x="29.693" y="7.486" width="11.845" height="11.808" rx="3"/><rect stroke="#AAB9C8" fill="#FFF" opacity=".396" x="47.208" y="7.486" width="11.845" height="11.808" rx="3"/><rect stroke="#AAB9C8" fill="#B8E986" opacity=".396" x="82.239" y="7.486" width="11.845" height="11.808" rx="3"/><rect stroke="#AAB9C8" fill="#B8E986" opacity=".396" x="102.09" y="7.486" width="11.845" height="11.808" rx="3"/><rect stroke="#AAB9C8" fill="#B8E986" opacity=".396" x="121.941" y="7.486" width="11.845" height="11.808" rx="3"/><rect fill="#F5A623" opacity=".396" x="148.298" y="6.986" width="12.845" height="12.808" rx="3"/><rect stroke="#AAB9C8" fill="#FFF" opacity=".396" x="168.649" y="7.486" width="11.845" height="11.808" rx="3"/></g></g></g></svg>